# xmcd
#
# Track frame offsets:
#	150
#	14027
#	27010
#	38497
#	52127
#	64982
#	78212
#	90945
#	104682
#	117697
#	130307
#	142145
#	155707
#	166907
#	180405
#	193892
#	207077
#	219830
#
# Disc length: 3103 seconds
#
# Revision: 0
# Processed by: cddbd v1.5.2PL0 Copyright (c) Steve Scherf et al.
# Submitted via: EasyCDDAExtractor 15.3.0.1
#
DISCID=020c1d12
DTITLE=Big Bill Broonzy - Maestros del Jazz y del Blues nº 80
DYEAR=1900
DGENRE=Blues
TTITLE0=Big Bill Blues
TTITLE1=You know I got a reason
TTITLE2=Baby I done got wise
TTITLE3=You better cut that out
TTITLE4=Just a dream
TTITLE5=Lonesome road blues
TTITLE6=Rockin' chair blues
TTITLE7=Key to the highway
TTITLE8=When I been drinking
TTITLE9=I feel so good
TTITLE10=To many drivers
TTITLE11=Looking up at down
TTITLE12=All by myself
TTITLE13=Wee wee hour blues
TTITLE14=Tell me baby
TTITLE15=New shake 'em on down
TTITLE16=Night time is the right time
TTITLE17=I'm gonna move to the outskirts of the town
EXTD=
EXTT0=
EXTT1=
EXTT2=
EXTT3=
EXTT4=
EXTT5=
EXTT6=
EXTT7=
EXTT8=
EXTT9=
EXTT10=
EXTT11=
EXTT12=
EXTT13=
EXTT14=
EXTT15=
EXTT16=
EXTT17=
PLAYORDER=
